<svg xmlns="http://www.w3.org/2000/svg" viewBox="0 0 300 480" width="300" height="480">
  <!-- Minimal modern front-facing silhouette (stylized) -->
  <defs>
    <linearGradient id="goldGrad" x1="0%" x2="100%">
      <stop offset="0%" stop-color="#ffd700" />
      <stop offset="60%" stop-color="#d4af37" />
      <stop offset="100%" stop-color="#c9a227" />
    </linearGradient>
  </defs>
  <rect width="100%" height="100%" fill="none" />

  <!-- Silhouette body (black) -->
  <g fill="#111" stroke="none">
    <ellipse cx="150" cy="380" rx="60" ry="10" fill-opacity="0.12" />
    <path d="M110 380 C100 300 120 260 115 220 C110 185 130 140 150 140 C170 140 190 180 185 220 C180 260 200 300 190 380 Z" />
    <circle cx="150" cy="100" r="34" />
    <path d="M120 110 C130 95 140 90 150 90 C160 90 170 95 180 110 C170 120 155 118 150 118 C145 118 130 120 120 110 Z" fill="#111" />
  </g>

  <!-- Golden highlight overlay -->
  <g fill="url(#goldGrad)" opacity="0.18">
    <path d="M146 64 C138 68 132 80 132 92 C132 110 146 122 150 122 C154 122 170 110 170 92 C170 80 164 68 156 64 C152 62 148 62 146 64 Z" />
    <path d="M130 180 C142 170 160 166 172 176 C165 190 150 192 138 190 C128 188 122 184 130 180 Z" />
  </g>
</svg>